<svg xmlns="http://www.w3.org/2000/svg" id="svg-tree" width="687.1667907714843" height="998.6957336425781" style="background-color: white;"><g id="chart-container" width="907.9052124023438" height="624.6970825195312" transform="rotate(270) translate(-897.6967056274415 31.234854125976565)"><g id="link-container"><path fill="none" stroke="#000000" d="M 105.62255859375 0 L 12.573529411764707 0 L 12.573529411764707 110.22658099425092" stroke-width="2"/><path fill="none" stroke="#000000" d="M 105.62255859375 0 L 198.6715877757353 0 L 198.6715877757353 33.49243924827286" stroke-width="2"/><path fill="none" stroke="#000000" d="M 198.6715877757353 33.49243924827286 L 37.72058823529412 33.49243924827286 L 37.72058823529412 122.68805256292575" stroke-width="2"/><path fill="none" stroke="#000000" d="M 198.6715877757353 33.49243924827286 L 359.62258731617646 33.49243924827286 L 359.62258731617646 43.08710565727813" stroke-width="2"/><path fill="none" stroke="#000000" d="M 359.62258731617646 43.08710565727813 L 141.25574448529412 43.08710565727813 L 141.25574448529412 59.54877047200348" stroke-width="2"/><path fill="none" stroke="#000000" d="M 359.62258731617646 43.08710565727813 L 577.9894301470588 43.08710565727813 L 577.9894301470588 55.63070679742982" stroke-width="2"/><path fill="none" stroke="#000000" d="M 141.25574448529412 59.54877047200348 L 84.87132352941175 59.54877047200348 L 84.87132352941175 130.35702207836127" stroke-width="2"/><path fill="none" stroke="#000000" d="M 141.25574448529412 59.54877047200348 L 197.6401654411765 59.54877047200348 L 197.6401654411765 71.79284023382773" stroke-width="2"/><path fill="none" stroke="#000000" d="M 577.9894301470588 55.63070679742982 L 442.4310661764706 55.63070679742982 L 442.4310661764706 60.55364993477946" stroke-width="2"/><path fill="none" stroke="#000000" d="M 577.9894301470588 55.63070679742982 L 713.5477941176471 55.63070679742982 L 713.5477941176471 75.29059374849027" stroke-width="2"/><path fill="none" stroke="#000000" d="M 84.87132352941175 130.35702207836127 L 62.86764705882353 130.35702207836127 L 62.86764705882353 202.47548190733852" stroke-width="2"/><path fill="none" stroke="#000000" d="M 84.87132352941175 130.35702207836127 L 106.875 130.35702207836127 L 106.875 152.48562732499155" stroke-width="2"/><path fill="none" stroke="#000000" d="M 197.6401654411765 71.79284023382773 L 163.45588235294116 71.79284023382773 L 163.45588235294116 182.97985409923186" stroke-width="2"/><path fill="none" stroke="#000000" d="M 197.6401654411765 71.79284023382773 L 231.82444852941174 71.79284023382773 L 231.82444852941174 166.81675443258126" stroke-width="2"/><path fill="none" stroke="#000000" d="M 442.4310661764706 60.55364993477946 L 386.6360294117647 60.55364993477946 L 386.6360294117647 136.8549205275617" stroke-width="2"/><path fill="none" stroke="#000000" d="M 442.4310661764706 60.55364993477946 L 498.2261029411765 60.55364993477946 L 498.2261029411765 75.56403690999565" stroke-width="2"/><path fill="none" stroke="#000000" d="M 713.5477941176471 75.29059374849027 L 653.8235294117646 75.29059374849027 L 653.8235294117646 153.77554471230496" stroke-width="2"/><path fill="none" stroke="#000000" d="M 713.5477941176471 75.29059374849027 L 773.2720588235294 75.29059374849027 L 773.2720588235294 99.62123774095366" stroke-width="2"/><path fill="none" stroke="#000000" d="M 106.875 152.48562732499155 L 88.01470588235294 152.48562732499155 L 88.01470588235294 173.8683028165612" stroke-width="2"/><path fill="none" stroke="#000000" d="M 106.875 152.48562732499155 L 125.73529411764706 152.48562732499155 L 125.73529411764706 165.49012029566646" stroke-width="2"/><path fill="none" stroke="#000000" d="M 231.82444852941174 166.81675443258126 L 201.1764705882353 166.81675443258126 L 201.1764705882353 338.8183004009855" stroke-width="2"/><path fill="none" stroke="#000000" d="M 231.82444852941174 166.81675443258126 L 262.47242647058823 166.81675443258126 L 262.47242647058823 224.24561573022848" stroke-width="2"/><path fill="none" stroke="#000000" d="M 386.6360294117647 136.8549205275617 L 364.63235294117646 136.8549205275617 L 364.63235294117646 152.30107734673172" stroke-width="2"/><path fill="none" stroke="#000000" d="M 386.6360294117647 136.8549205275617 L 408.639705882353 136.8549205275617 L 408.639705882353 142.30832407362675" stroke-width="2"/><path fill="none" stroke="#000000" d="M 498.2261029411765 75.56403690999565 L 465.2205882352941 75.56403690999565 L 465.2205882352941 113.74945649548286" stroke-width="2"/><path fill="none" stroke="#000000" d="M 498.2261029411765 75.56403690999565 L 531.2316176470588 75.56403690999565 L 531.2316176470588 82.33731098120681" stroke-width="2"/><path fill="none" stroke="#000000" d="M 653.8235294117646 153.77554471230496 L 628.6764705882354 153.77554471230496 L 628.6764705882354 155.25677568964684" stroke-width="2"/><path fill="none" stroke="#000000" d="M 653.8235294117646 153.77554471230496 L 678.970588235294 153.77554471230496 L 678.970588235294 157.47813904053336" stroke-width="2"/><path fill="none" stroke="#000000" d="M 773.2720588235294 99.62123774095366 L 735.5514705882354 99.62123774095366 L 735.5514705882354 100.97106140393255" stroke-width="2"/><path fill="none" stroke="#000000" d="M 773.2720588235294 99.62123774095366 L 810.9926470588235 99.62123774095366 L 810.9926470588235 137.96511908787863" stroke-width="2"/><path fill="none" stroke="#000000" d="M 125.73529411764706 165.49012029566646 L 113.16176470588235 165.49012029566646 L 113.16176470588235 170.60341079279192" stroke-width="2"/><path fill="none" stroke="#000000" d="M 125.73529411764706 165.49012029566646 L 138.30882352941177 165.49012029566646 L 138.30882352941177 172.90303879414466" stroke-width="2"/><path fill="none" stroke="#000000" d="M 201.1764705882353 338.8183004009855 L 188.60294117647058 338.8183004009855 L 188.60294117647058 399.0347359775834" stroke-width="2"/><path fill="none" stroke="#000000" d="M 201.1764705882353 338.8183004009855 L 213.75 338.8183004009855 L 213.75 459.99999999999994" stroke-width="2"/><path fill="none" stroke="#000000" d="M 262.47242647058823 224.24561573022848 L 238.89705882352942 224.24561573022848 L 238.89705882352942 322.21266727861246" stroke-width="2"/><path fill="none" stroke="#000000" d="M 262.47242647058823 224.24561573022848 L 286.047794117647 224.24561573022848 L 286.047794117647 281.58365138412483" stroke-width="2"/><path fill="none" stroke="#000000" d="M 408.639705882353 142.30832407362675 L 389.77941176470586 142.30832407362675 L 389.77941176470586 142.30832407362675" stroke-width="2"/><path fill="none" stroke="#000000" d="M 408.639705882353 142.30832407362675 L 427.5 142.30832407362675 L 427.5 142.30832407362675" stroke-width="2"/><path fill="none" stroke="#000000" d="M 531.2316176470588 82.33731098120681 L 502.94117647058823 82.33731098120681 L 502.94117647058823 86.00222232958114" stroke-width="2"/><path fill="none" stroke="#000000" d="M 531.2316176470588 82.33731098120681 L 559.5220588235294 82.33731098120681 L 559.5220588235294 161.10536740905357" stroke-width="2"/><path fill="none" stroke="#000000" d="M 628.6764705882354 155.25677568964684 L 616.1029411764706 155.25677568964684 L 616.1029411764706 158.60283105464032" stroke-width="2"/><path fill="none" stroke="#000000" d="M 628.6764705882354 155.25677568964684 L 641.25 155.25677568964684 L 641.25 159.59418329387893" stroke-width="2"/><path fill="none" stroke="#000000" d="M 678.970588235294 157.47813904053336 L 666.3970588235294 157.47813904053336 L 666.3970588235294 158.3274554326296" stroke-width="2"/><path fill="none" stroke="#000000" d="M 678.970588235294 157.47813904053336 L 691.5441176470588 157.47813904053336 L 691.5441176470588 159.17387313396785" stroke-width="2"/><path fill="none" stroke="#000000" d="M 735.5514705882354 100.97106140393255 L 716.6911764705883 100.97106140393255 L 716.6911764705883 131.69138605729745" stroke-width="2"/><path fill="none" stroke="#000000" d="M 735.5514705882354 100.97106140393255 L 754.4117647058823 100.97106140393255 L 754.4117647058823 115.87516305135513" stroke-width="2"/><path fill="none" stroke="#000000" d="M 810.9926470588235 137.96511908787863 L 792.1323529411765 137.96511908787863 L 792.1323529411765 140.82032948451618" stroke-width="2"/><path fill="none" stroke="#000000" d="M 810.9926470588235 137.96511908787863 L 829.8529411764706 137.96511908787863 L 829.8529411764706 142.72863423353783" stroke-width="2"/><path fill="none" stroke="#000000" d="M 286.047794117647 281.58365138412483 L 264.04411764705884 281.58365138412483 L 264.04411764705884 335.7369921252234" stroke-width="2"/><path fill="none" stroke="#000000" d="M 286.047794117647 281.58365138412483 L 308.0514705882353 281.58365138412483 L 308.0514705882353 317.62114111792835" stroke-width="2"/><path fill="none" stroke="#000000" d="M 427.5 142.30832407362675 L 414.9264705882353 142.30832407362675 L 414.9264705882353 142.30832407362675" stroke-width="2"/><path fill="none" stroke="#000000" d="M 427.5 142.30832407362675 L 440.07352941176464 142.30832407362675 L 440.07352941176464 142.30832407362675" stroke-width="2"/><path fill="none" stroke="#000000" d="M 502.94117647058823 86.00222232958114 L 490.3676470588235 86.00222232958114 L 490.3676470588235 145.77225952944588" stroke-width="2"/><path fill="none" stroke="#000000" d="M 502.94117647058823 86.00222232958114 L 515.5147058823529 86.00222232958114 L 515.5147058823529 148.8497028841973" stroke-width="2"/><path fill="none" stroke="#000000" d="M 559.5220588235294 161.10536740905357 L 540.6617647058823 161.10536740905357 L 540.6617647058823 182.7556886806126" stroke-width="2"/><path fill="none" stroke="#000000" d="M 559.5220588235294 161.10536740905357 L 578.3823529411765 161.10536740905357 L 578.3823529411765 166.0911155128267" stroke-width="2"/><path fill="none" stroke="#000000" d="M 754.4117647058823 115.87516305135513 L 741.8382352941177 115.87516305135513 L 741.8382352941177 129.55698342915113" stroke-width="2"/><path fill="none" stroke="#000000" d="M 754.4117647058823 115.87516305135513 L 766.9852941176471 115.87516305135513 L 766.9852941176471 130.8362722836852" stroke-width="2"/><path fill="none" stroke="#000000" d="M 829.8529411764706 142.72863423353783 L 817.279411764706 142.72863423353783 L 817.279411764706 145.23890042997243" stroke-width="2"/><path fill="none" stroke="#000000" d="M 829.8529411764706 142.72863423353783 L 842.4264705882354 142.72863423353783 L 842.4264705882354 145.24276535098312" stroke-width="2"/><path fill="none" stroke="#000000" d="M 308.0514705882353 317.62114111792835 L 289.19117647058823 317.62114111792835 L 289.19117647058823 355.73022851345473" stroke-width="2"/><path fill="none" stroke="#000000" d="M 308.0514705882353 317.62114111792835 L 326.9117647058823 317.62114111792835 L 326.9117647058823 344.7954007439972" stroke-width="2"/><path fill="none" stroke="#000000" d="M 578.3823529411765 166.0911155128267 L 565.8088235294117 166.0911155128267 L 565.8088235294117 192.790956084835" stroke-width="2"/><path fill="none" stroke="#000000" d="M 578.3823529411765 166.0911155128267 L 590.9558823529412 166.0911155128267 L 590.9558823529412 200.12077878158365" stroke-width="2"/><path fill="none" stroke="#000000" d="M 326.9117647058823 344.7954007439972 L 314.3382352941177 344.7954007439972 L 314.3382352941177 349.08449683559587" stroke-width="2"/><path fill="none" stroke="#000000" d="M 326.9117647058823 344.7954007439972 L 339.485294117647 344.7954007439972 L 339.485294117647 352.22861007778147" stroke-width="2"/></g><g id="link-extension-container"/><g id="inner-dot-container"/><g id="inner-label-container"/><g id="leaf-dot-container"/><g id="bars-container"/><g id="leaf-label-container"><text class="leaf" dy="0.3em" dx="0.6em" text-anchor="start" transform="rotate(0) translate(12.573529411764707 110.22658099425092) rotate(90)" font-size="16" font-family="Helvetica" fill="#000000">cape_rock_hyrax</text><text class="leaf" dy="0.3em" dx="0.6em" text-anchor="start" transform="rotate(0) translate(37.72058823529412 122.68805256292575) rotate(90)" font-size="16" font-family="Helvetica" fill="#000000">nine_banded_armadillo</text><text class="leaf" dy="0.3em" dx="0.6em" text-anchor="start" transform="rotate(0) translate(62.86764705882353 202.47548190733852) rotate(90)" font-size="16" font-family="Helvetica" fill="#000000">white_tufted_ear_marmoset</text><text class="leaf" dy="0.3em" dx="0.6em" text-anchor="start" transform="rotate(0) translate(163.45588235294116 182.97985409923186) rotate(90)" font-size="16" font-family="Helvetica" fill="#000000">rabbit</text><text class="leaf" dy="0.3em" dx="0.6em" text-anchor="start" transform="rotate(0) translate(88.01470588235294 173.8683028165612) rotate(90)" font-size="16" font-family="Helvetica" fill="#000000">gibbon</text><text class="leaf" dy="0.3em" dx="0.6em" text-anchor="start" transform="rotate(0) translate(364.63235294117646 152.30107734673172) rotate(90)" font-size="16" font-family="Helvetica" fill="#000000">donkey</text><text class="leaf" dy="0.3em" dx="0.6em" text-anchor="start" transform="rotate(0) translate(465.2205882352941 113.74945649548286) rotate(90)" font-size="16" font-family="Helvetica" fill="#000000">arabian_camel</text><text class="leaf" dy="0.3em" dx="0.6em" text-anchor="start" transform="rotate(0) translate(113.16176470588235 170.60341079279192) rotate(90)" font-size="16" font-family="Helvetica" fill="#000000">chimpanzee</text><text class="leaf" dy="0.3em" dx="0.6em" text-anchor="start" transform="rotate(0) translate(138.30882352941177 172.90303879414466) rotate(90)" font-size="16" font-family="Helvetica" fill="#000000">gorilla</text><text class="leaf" dy="0.3em" dx="0.6em" text-anchor="start" transform="rotate(0) translate(188.60294117647058 399.0347359775834) rotate(90)" font-size="16" font-family="Helvetica" fill="#000000">prairie_deer_mouse</text><text class="leaf" dy="0.3em" dx="0.6em" text-anchor="start" transform="rotate(0) translate(213.75 459.99999999999994) rotate(90)" font-size="16" font-family="Helvetica" fill="#000000">norway_rat</text><text class="leaf" dy="0.3em" dx="0.6em" text-anchor="start" transform="rotate(0) translate(238.89705882352942 322.21266727861246) rotate(90)" font-size="16" font-family="Helvetica" fill="#000000">upper_galilee_mountains_blind_mole_rat</text><text class="leaf" dy="0.3em" dx="0.6em" text-anchor="start" transform="rotate(0) translate(389.77941176470586 142.30832407362675) rotate(90)" font-size="16" font-family="Helvetica" fill="#000000">domestic_horse</text><text class="leaf" dy="0.3em" dx="0.6em" text-anchor="start" transform="rotate(0) translate(616.1029411764706 158.60283105464032) rotate(90)" font-size="16" font-family="Helvetica" fill="#000000">canadian_lynx</text><text class="leaf" dy="0.3em" dx="0.6em" text-anchor="start" transform="rotate(0) translate(641.25 159.59418329387893) rotate(90)" font-size="16" font-family="Helvetica" fill="#000000">domestic_cat</text><text class="leaf" dy="0.3em" dx="0.6em" text-anchor="start" transform="rotate(0) translate(666.3970588235294 158.3274554326296) rotate(90)" font-size="16" font-family="Helvetica" fill="#000000">leopard</text><text class="leaf" dy="0.3em" dx="0.6em" text-anchor="start" transform="rotate(0) translate(691.5441176470588 159.17387313396785) rotate(90)" font-size="16" font-family="Helvetica" fill="#000000">lion</text><text class="leaf" dy="0.3em" dx="0.6em" text-anchor="start" transform="rotate(0) translate(716.6911764705883 131.69138605729745) rotate(90)" font-size="16" font-family="Helvetica" fill="#000000">cali_sea_lion</text><text class="leaf" dy="0.3em" dx="0.6em" text-anchor="start" transform="rotate(0) translate(792.1323529411765 140.82032948451618) rotate(90)" font-size="16" font-family="Helvetica" fill="#000000">red_fox</text><text class="leaf" dy="0.3em" dx="0.6em" text-anchor="start" transform="rotate(0) translate(264.04411764705884 335.7369921252234) rotate(90)" font-size="16" font-family="Helvetica" fill="#000000">prairie_deer_mouse</text><text class="leaf" dy="0.3em" dx="0.6em" text-anchor="start" transform="rotate(0) translate(414.9264705882353 142.30832407362675) rotate(90)" font-size="16" font-family="Helvetica" fill="#000000">domestic_horse</text><text class="leaf" dy="0.3em" dx="0.6em" text-anchor="start" transform="rotate(0) translate(440.07352941176464 142.30832407362675) rotate(90)" font-size="16" font-family="Helvetica" fill="#000000">domestic_horse</text><text class="leaf" dy="0.3em" dx="0.6em" text-anchor="start" transform="rotate(0) translate(490.3676470588235 145.77225952944588) rotate(90)" font-size="16" font-family="Helvetica" fill="#000000">wild_boar</text><text class="leaf" dy="0.3em" dx="0.6em" text-anchor="start" transform="rotate(0) translate(515.5147058823529 148.8497028841973) rotate(90)" font-size="16" font-family="Helvetica" fill="#000000">beluga_whale</text><text class="leaf" dy="0.3em" dx="0.6em" text-anchor="start" transform="rotate(0) translate(540.6617647058823 182.7556886806126) rotate(90)" font-size="16" font-family="Helvetica" fill="#000000">central_asian_red_deer</text><text class="leaf" dy="0.3em" dx="0.6em" text-anchor="start" transform="rotate(0) translate(741.8382352941177 129.55698342915113) rotate(90)" font-size="16" font-family="Helvetica" fill="#000000">giant_panda</text><text class="leaf" dy="0.3em" dx="0.6em" text-anchor="start" transform="rotate(0) translate(766.9852941176471 130.8362722836852) rotate(90)" font-size="16" font-family="Helvetica" fill="#000000">polar_bear</text><text class="leaf" dy="0.3em" dx="0.6em" text-anchor="start" transform="rotate(0) translate(817.279411764706 145.23890042997243) rotate(90)" font-size="16" font-family="Helvetica" fill="#000000">dingo</text><text class="leaf" dy="0.3em" dx="0.6em" text-anchor="start" transform="rotate(0) translate(842.4264705882354 145.24276535098312) rotate(90)" font-size="16" font-family="Helvetica" fill="#000000">domestic_dog</text><text class="leaf" dy="0.3em" dx="0.6em" text-anchor="start" transform="rotate(0) translate(289.19117647058823 355.73022851345473) rotate(90)" font-size="16" font-family="Helvetica" fill="#000000">norway_rat</text><text class="leaf" dy="0.3em" dx="0.6em" text-anchor="start" transform="rotate(0) translate(565.8088235294117 192.790956084835) rotate(90)" font-size="16" font-family="Helvetica" fill="#000000">siberian_musk_deer</text><text class="leaf" dy="0.3em" dx="0.6em" text-anchor="start" transform="rotate(0) translate(590.9558823529412 200.12077878158365) rotate(90)" font-size="16" font-family="Helvetica" fill="#000000">american_bison</text><text class="leaf" dy="0.3em" dx="0.6em" text-anchor="start" transform="rotate(0) translate(314.3382352941177 349.08449683559587) rotate(90)" font-size="16" font-family="Helvetica" fill="#000000">steppe_mouse</text><text class="leaf" dy="0.3em" dx="0.6em" text-anchor="start" transform="rotate(0) translate(339.485294117647 352.22861007778147) rotate(90)" font-size="16" font-family="Helvetica" fill="#000000">house_mouse</text></g><g id="scale-bar-container" transform="rotate(90 -45.56709289550781 322.3852081298828)"><path id="scale-bar" stroke="black" stroke-width="2" d="M -95.5670952796936 312.3485412597656 L 4.4329047203063965 312.3485412597656" transform=""/><text id="scale-bar-text" dominant-baseline="hanging" text-anchor="middle" x="-45.5670952796936" y="317.3485412597656" transform="" font-family="Helvetica">0.1</text></g></g></svg>